<?xml version="1.0" encoding="utf-8"?><svg viewBox="0 0 100 100" xmlns="http://www.w3.org/2000/svg" width="200px" height="200px" xmlns:xlink="http://www.w3.org/1999/xlink" style="width:100%;height:100%;background-size:initial;background-repeat-y:initial;background-repeat-x:initial;background-position-y:initial;background-position-x:initial;background-origin:initial;background-image:initial;background-color:rgb(255, 255, 255);background-clip:initial;background-attachment:initial;animation-play-state:paused" ><g class="ldl-scale" style="transform-origin:50% 50%;transform:rotate(0deg) scale(0.8, 0.8);animation-play-state:paused" ><circle fill="#f5e169" r="40" cy="50" cx="50" style="fill:rgb(245, 225, 105);animation-play-state:paused" ></circle>
<circle stroke-miterlimit="10" stroke-linejoin="round" stroke-linecap="round" stroke-width="6" stroke="#f7b26a" fill="none" r="30" cy="50" cx="50" style="stroke:rgb(247, 178, 106);animation-play-state:paused" ></circle>
<path opacity=".1" d="M21.716 78.284C28.954 85.523 38.954 90 50 90c22.091 0 40-17.909 40-40 0-11.046-4.477-21.046-11.716-28.284L21.716 78.284z" style="animation-play-state:paused" ></path>
<g style="animation-play-state:paused" ><path stroke-miterlimit="10" stroke-linejoin="round" stroke-linecap="round" stroke-width="4" stroke="#f47e5f" fill="none" d="M57.263 38.525H46.262a5.738 5.738 0 0 0-5.738 5.738v0a5.738 5.738 0 0 0 5.738 5.738h7.475a5.738 5.738 0 0 1 5.738 5.738v0a5.738 5.738 0 0 1-5.738 5.738H40.525" style="stroke:rgb(244, 126, 95);animation-play-state:paused" ></path>
<path d="M50 61.476V67.5" stroke-miterlimit="10" stroke-linejoin="round" stroke-linecap="round" stroke-width="4" stroke="#f47e5f" fill="none" style="stroke:rgb(244, 126, 95);animation-play-state:paused" ></path>
<path d="M50 32.5v6.024" stroke-miterlimit="10" stroke-linejoin="round" stroke-linecap="round" stroke-width="4" stroke="#f47e5f" fill="none" style="stroke:rgb(244, 126, 95);animation-play-state:paused" ></path></g>
<path fill="#fff" d="M42.395 19.487l-3.801-.271a5.88 5.88 0 0 1-5.45-5.506l-.267-4.38a.513.513 0 0 0-.512-.481h-.115a.513.513 0 0 0-.512.481l-.267 4.38a5.88 5.88 0 0 1-5.45 5.506l-3.801.271c-.24.017-.456.186-.496.424a.514.514 0 0 0 .469.601l3.829.273a5.88 5.88 0 0 1 5.45 5.506l.267 4.38c.017.27.241.481.512.481h.115a.513.513 0 0 0 .512-.481l.267-4.38a5.88 5.88 0 0 1 5.45-5.506l3.828-.273a.513.513 0 0 0 .469-.601.535.535 0 0 0-.497-.424z" style="fill:rgb(255, 255, 255);animation-play-state:paused" ></path>
<path fill="#fff" d="M26.138 59.809l-2.313-.165a3.577 3.577 0 0 1-3.316-3.35l-.163-2.665a.311.311 0 0 0-.311-.293h-.07a.311.311 0 0 0-.311.293l-.163 2.665a3.576 3.576 0 0 1-3.316 3.35l-2.313.165a.324.324 0 0 0-.302.258.311.311 0 0 0 .285.365l2.329.166a3.577 3.577 0 0 1 3.316 3.35l.163 2.665c.01.165.146.293.311.293h.07a.311.311 0 0 0 .311-.293l.163-2.665a3.576 3.576 0 0 1 3.316-3.35l2.329-.166a.312.312 0 0 0 .285-.365c-.023-.144-.154-.247-.3-.258z" style="fill:rgb(255, 255, 255);animation-play-state:paused" ></path>
<path fill="#fff" d="M93.406 37.919l-4.485-.32a6.936 6.936 0 0 1-6.43-6.496l-.316-5.168a.605.605 0 0 0-.604-.568h-.135a.605.605 0 0 0-.604.568l-.316 5.168a6.937 6.937 0 0 1-6.43 6.496l-4.485.32c-.283.02-.537.22-.585.5a.606.606 0 0 0 .553.709l4.517.322a6.936 6.936 0 0 1 6.43 6.496l.316 5.168a.605.605 0 0 0 .604.568h.135c.32 0 .584-.249.604-.568l.316-5.168a6.937 6.937 0 0 1 6.43-6.496l4.517-.322a.606.606 0 0 0 .553-.709c-.048-.28-.302-.48-.585-.5z" style="fill:rgb(255, 255, 255);animation-play-state:paused" ></path>
<metadata xmlns:d="https://loading.io/stock/" style="animation-play-state:paused" ><d:name style="animation-play-state:paused" >money</d:name>


<d:tags style="animation-play-state:paused" >money,price,revenue,profit,evaluation,value,dollar,bucks,cent,coin,credit,currency</d:tags>


<d:license style="animation-play-state:paused" >by</d:license>


<d:slug style="animation-play-state:paused" >23tqnq</d:slug></metadata></g><!-- generated by https://loading.io/ --></svg>